<svg xmlns="http://www.w3.org/2000/svg" viewBox="0 0 191.5 65.67"><defs><style>.cls-1{fill:#6d682b;}.cls-2,.cls-6{fill:#231f20;}.cls-3{fill:#512f1e;}.cls-4{fill:#333;}.cls-5{opacity:0.35;}.cls-6{fill-rule:evenodd;}.cls-7{fill:#cfcfce;stroke:#fff;stroke-miterlimit:10;stroke-width:0.25px;}.cls-8{opacity:0.5;}</style></defs><title>Artboard 1</title><g id="Layer_5" data-name="Layer 5"><path class="cls-1" d="M8.19,33.14A8.72,8.72,0,0,0,16.26,38c4.21,0,6.71-2.08,6.71-5.3,0-3.4-2.09-4.94-5.8-6.66l-2.5-1.18c-4.44-2.09-7.12-4.08-7.12-8.39S11,9.12,15.49,9.12a9.07,9.07,0,0,1,8.43,4.53L21.65,15.1a6.55,6.55,0,0,0-6.12-3.4c-3,0-5.07,2-5.07,4.67,0,2.95,1.67,4,5.44,5.8l2.49,1.18c4.94,2.36,7.52,4.63,7.52,9.25,0,5.08-3.85,8.07-9.61,8.07A11.4,11.4,0,0,1,5.7,34.46Z"/><path class="cls-1" d="M49.17,9.48h2.95V40.31H49.17V30.15H32.35V40.31h-3V9.48h3v18H49.17Z"/><path class="cls-1" d="M57.47,9.48h3V40.31h-3Z"/><path class="cls-1" d="M72.56,12.11H63V9.48H85v2.63H75.51v28.2h-3Z"/><path class="cls-2" d="M90.74,38.45a2.12,2.12,0,0,1,2.13-2.13,2.13,2.13,0,1,1-2.13,2.13Z"/><path class="cls-3" d="M104.07,9.48h17.77v1.27H105.52V28.29h14.82v1.27H105.52V40.31h-1.45Z"/><path class="cls-3" d="M126.1,9.48h1.45V40.31H126.1Z"/><path class="cls-3" d="M132.31,34a9.78,9.78,0,0,0,8.93,5.39c4.94,0,7.75-2.58,7.75-6.39s-2-5.75-6.52-7.93l-2.82-1.36c-4.35-2.13-6.7-3.81-6.7-7.75,0-4.13,3.3-6.8,7.43-6.8a8.63,8.63,0,0,1,8.07,4.35l-1.09.63a7.5,7.5,0,0,0-7-3.71c-3.54,0-6,2.35-6,5.53,0,3.35,1.86,4.58,5.94,6.57l2.76,1.36c5.17,2.54,7.35,4.94,7.35,9.11,0,4.58-3.4,7.71-9.16,7.71a11,11,0,0,1-10.15-6Z"/><path class="cls-3" d="M174.74,9.48h1.45V40.31h-1.45V29.56h-18.4V40.31h-1.45V9.48h1.45V28.29h18.4Z"/></g><g id="Layer_4" data-name="Layer 4"><ellipse class="cls-4" cx="185.46" cy="44.76" rx="3.1" ry="1.83" transform="translate(2.47 98.73) rotate(-30)"/><g class="cls-5"><path class="cls-6" d="M16.32,56.67l.16.35c.76-.37,1.55-.64,2.33-.94l-.17-.43C17.86,56,17.07,56.28,16.32,56.67Z"/><path class="cls-6" d="M12.3,58.78l.11.2c.74-.4,1.5-.77,2.25-1.15l-.15-.28C13.78,58,13,58.35,12.3,58.78Z"/><path class="cls-6" d="M8.42,61.1l0,0c.76-.38,1.5-.79,2.23-1.21l-.08-.12C9.88,60.25,9.16,60.69,8.42,61.1Z"/><polygon class="cls-6" points="29.29 52.45 29.44 53.21 31.91 52.78 31.78 51.95 29.29 52.45"/><polygon class="cls-6" points="24.86 53.52 25.03 54.15 27.47 53.56 27.31 52.85 24.86 53.52"/><polygon class="cls-6" points="20.54 54.89 20.72 55.39 23.12 54.65 22.94 54.07 20.54 54.89"/><polygon class="cls-6" points="42.85 50.85 42.88 51.92 45.4 51.92 45.39 50.82 42.85 50.85"/><polygon class="cls-6" points="38.31 51.16 38.39 52.13 40.9 52 40.84 50.97 38.31 51.16"/><polygon class="cls-6" points="33.8 51.68 33.92 52.55 36.41 52.26 36.32 51.33 33.8 51.68"/><polygon class="cls-6" points="56.51 51.15 56.41 52.41 58.91 52.68 59.03 51.38 56.51 51.15"/><polygon class="cls-6" points="51.96 50.91 51.91 52.12 54.42 52.26 54.5 51.02 51.96 50.91"/><path class="cls-6" d="M47.43,50.79v1.14h1.26l1.25.07,0-1.17C49.12,50.78,48.28,50.76,47.43,50.79Z"/><path class="cls-6" d="M70.07,52.76l-.23,1.39c.83.13,1.66.24,2.49.4l.24-1.41C71.74,53,70.9,52.88,70.07,52.76Z"/><polygon class="cls-6" points="65.57 52.11 65.38 53.47 67.87 53.85 68.08 52.47 65.57 52.11"/><path class="cls-6" d="M61.07,51.57l-.15,1.32c.84.09,1.67.16,2.5.28l.17-1.34C62.75,51.72,61.91,51.66,61.07,51.57Z"/><rect class="cls-2" x="83.89" y="54.64" width="1.49" height="2.53" transform="translate(15.64 130.24) rotate(-80.58)"/><polygon class="cls-6" points="79.04 54.22 78.8 55.67 81.29 56.09 81.53 54.64 79.04 54.22"/><polygon class="cls-6" points="74.58 53.48 74.34 54.9 76.83 55.33 77.08 53.89 74.58 53.48"/><polygon class="cls-6" points="96.95 57.11 96.73 58.59 99.24 58.94 99.45 57.46 96.95 57.11"/><rect class="cls-2" x="92.86" y="56.08" width="1.5" height="2.53" transform="translate(22.47 140.95) rotate(-81.1)"/><rect class="cls-2" x="88.4" y="55.38" width="1.5" height="2.53" transform="translate(18.94 135.55) rotate(-80.77)"/><path class="cls-6" d="M110.44,58.92l-.17,1.45q1.26.16,2.52.27l.15-1.43C112.11,59.13,111.27,59,110.44,58.92Z"/><polygon class="cls-6" points="105.94 58.37 105.75 59.83 108.27 60.13 108.45 58.68 105.94 58.37"/><polygon class="cls-6" points="101.47 57.75 101.26 59.23 103.77 59.58 103.97 58.11 101.47 57.75"/><path class="cls-6" d="M124,60.13l-.07,1.35c.84.05,1.69.12,2.54.12l0-1.33C125.65,60.26,124.81,60.18,124,60.13Z"/><polygon class="cls-6" points="119.46 59.83 119.35 61.22 121.89 61.37 121.97 60 119.46 59.83"/><polygon class="cls-6" points="114.97 59.41 114.83 60.83 117.36 61.06 117.48 59.66 114.97 59.41"/><polygon class="cls-6" points="137.54 60.33 137.59 61.51 138.86 61.46 140.13 61.34 140.06 60.2 138.8 60.3 137.54 60.33"/><polygon class="cls-6" points="133.02 60.42 133.03 61.66 135.57 61.58 135.54 60.37 133.02 60.42"/><polygon class="cls-6" points="128.52 60.33 128.49 61.63 131.03 61.67 131.04 60.39 128.52 60.33"/><polygon class="cls-6" points="151.03 58.98 151.2 59.91 153.68 59.32 153.5 58.46 151.03 58.98"/><polygon class="cls-6" points="146.56 59.61 146.69 60.63 149.21 60.23 149.05 59.26 146.56 59.61"/><polygon class="cls-6" points="142.08 60.05 142.18 61.15 144.71 60.92 144.59 59.86 142.08 60.05"/><polygon class="cls-6" points="164.13 55.5 164.34 56.06 166.69 55.09 166.49 54.6 164.13 55.5"/><polygon class="cls-6" points="159.83 56.88 160.04 57.58 162.47 56.8 162.25 56.17 159.83 56.88"/><path class="cls-6" d="M155.48,58l.2.81a23.49,23.49,0,0,0,2.46-.66l-.21-.75A22.45,22.45,0,0,1,155.48,58Z"/><polygon class="cls-6" points="176.44 49.77 176.52 49.9 178.65 48.54 178.63 48.5 176.44 49.77"/><path class="cls-6" d="M172.46,51.93l.15.28A23.88,23.88,0,0,0,174.82,51l-.11-.2A22.66,22.66,0,0,1,172.46,51.93Z"/><polygon class="cls-6" points="168.39 53.87 168.58 54.3 170.84 53.13 170.67 52.78 168.39 53.87"/></g><ellipse class="cls-7" cx="184.29" cy="42.88" rx="1.38" ry="1.88" transform="translate(15.49 128.36) rotate(-39.96)"/><ellipse class="cls-7" cx="186.8" cy="45.88" rx="1.38" ry="1.88" transform="translate(14.15 130.68) rotate(-39.96)"/></g></svg>