<svg xmlns="http://www.w3.org/2000/svg" viewBox="0 0 262.17 314.67"><defs><style>.cls-1{fill:#4f4a21;}.cls-2{fill:#fff;}.cls-14,.cls-3{fill:#6d682b;}.cls-12,.cls-4{fill:#231f20;}.cls-5{fill:#512f1e;}.cls-6{fill:#704a30;}.cls-7{fill:#bda02f;}.cls-8{opacity:0.36;}.cls-9{fill:#5d3714;}.cls-10{fill:#333;}.cls-11{opacity:0.35;}.cls-12{fill-rule:evenodd;}.cls-13{fill:#cfcfce;stroke-width:0.25px;}.cls-13,.cls-14{stroke:#fff;stroke-miterlimit:10;}.cls-14{stroke-width:1.52px;}.cls-15,.cls-16{opacity:0.5;}.cls-16{fill:#443429;}</style></defs><title>Artboard 1</title><g id="Layer_5" data-name="Layer 5"><path class="cls-1" d="M121.29,230.66S137,220.81,161,217.47c30.11-4.19,19.05-8.36-1.75,11.53S121.29,230.66,121.29,230.66Z"/><path class="cls-2" d="M121.29,230.66a65.58,65.58,0,0,1,7-4.08c2.39-1.25,4.84-2.4,7.33-3.44a121.65,121.65,0,0,1,15.54-4.63c2.63-.59,5.29-1.11,8-1.51s5.31-.76,8-1.22,5.27-.94,7.87-1.52c1.31-.29,2.59-.6,3.92-.92l.26-.06a2.27,2.27,0,0,1,.4-.06.9.9,0,0,1,.27.05c.1-.17.88.84.44,1.11a.74.74,0,0,1-.25.27l-.16.12-.25.14-.89.49-1.73,1A87.8,87.8,0,0,0,164,225.74c-2,1.73-3.9,3.58-6,5.41a37.88,37.88,0,0,1-6.73,4.69,24.55,24.55,0,0,1-16,2.85A27.11,27.11,0,0,1,121.29,230.66Zm0,0c8.07,7.15,20.09,9.14,29.3,3.84a36.65,36.65,0,0,0,6.46-4.5c1.95-1.73,3.91-3.67,6-5.41a89.29,89.29,0,0,1,13.15-9.52l1.77-1,.88-.48.19-.11,0,0s0,0-.16.19c-.43.25.35,1.23.41,1.07.2,0,.17,0,.21,0s0,0-.09,0l-.23.06c-1.28.31-2.61.64-3.93.92-2.63.59-5.29,1.09-7.95,1.54s-5.34.8-8,1.23-5.26.9-7.86,1.48a116.89,116.89,0,0,0-15.33,4.58A101.16,101.16,0,0,0,121.29,230.66Z"/><path class="cls-3" d="M56.36,282.14A8.72,8.72,0,0,0,64.42,287c4.22,0,6.71-2.08,6.71-5.3,0-3.4-2.08-4.94-5.8-6.66l-2.49-1.18c-4.44-2.09-7.12-4.08-7.12-8.39s3.4-7.34,7.93-7.34a9.09,9.09,0,0,1,8.44,4.53l-2.27,1.45a6.56,6.56,0,0,0-6.12-3.4c-3,0-5.08,1.95-5.08,4.67,0,2.95,1.68,4,5.44,5.8l2.5,1.18c4.94,2.36,7.52,4.63,7.52,9.25,0,5.08-3.85,8.07-9.61,8.07a11.43,11.43,0,0,1-10.61-6.21Z"/><path class="cls-3" d="M97.34,258.48h2.94v30.83H97.34V279.15H80.52v10.16h-3V258.48h3v18H97.34Z"/><path class="cls-3" d="M105.63,258.48h3v30.83h-3Z"/><path class="cls-3" d="M120.73,261.11h-9.57v-2.63h22v2.63h-9.52v28.2h-3Z"/><path class="cls-4" d="M138.91,287.45a2.12,2.12,0,0,1,2.13-2.13,2.13,2.13,0,1,1,0,4.26A2.13,2.13,0,0,1,138.91,287.45Z"/><path class="cls-5" d="M152.24,258.48H170v1.27H153.69v17.54h14.82v1.27H153.69v10.75h-1.45Z"/><path class="cls-5" d="M174.27,258.48h1.45v30.83h-1.45Z"/><path class="cls-5" d="M180.48,283a9.78,9.78,0,0,0,8.93,5.39c4.94,0,7.75-2.58,7.75-6.39s-2-5.75-6.53-7.93l-2.81-1.36c-4.35-2.13-6.71-3.81-6.71-7.75,0-4.13,3.31-6.8,7.44-6.8a8.64,8.64,0,0,1,8.07,4.35l-1.09.63a7.5,7.5,0,0,0-7-3.71c-3.54,0-6,2.35-6,5.53,0,3.35,1.86,4.58,5.94,6.57l2.76,1.36c5.17,2.54,7.35,4.94,7.35,9.11,0,4.58-3.4,7.71-9.16,7.71a11,11,0,0,1-10.16-6Z"/><path class="cls-5" d="M222.91,258.48h1.45v30.83h-1.45V278.56H204.5v10.75h-1.45V258.48h1.45v18.81h18.41Z"/></g><g id="Shit"><path class="cls-6" d="M188.91,144.17c-1.44.72-2.89,1.42-4.31,2.17-7.83,4.13-15.09,9-20.94,15.79-4.34,5-7.38,10.62-8.24,17.27a30.62,30.62,0,0,0,2.64,16.47,54.45,54.45,0,0,0,11.57,16.65c4.12,4.11,8.59,7.88,12.91,11.8l.71.63c-3.69-1.11-7.35-2.22-11-3.28a33.81,33.81,0,0,0-4.07-.95,2.42,2.42,0,0,0-1.72.38c-3.11,2.63-6.17,5.34-9.24,8-4.17,3.65-8.71,6.61-14.29,7.63a21.68,21.68,0,0,1-8.85-.19l1.42-.73a45.43,45.43,0,0,0,10.31-7.76,87,87,0,0,1,18-13.22c.24-.13.56-.23.7-.44s.44-.74.34-1a1.1,1.1,0,0,0-.91-.53c-.7.06-1.39.31-2.1.44-6.64,1.2-13.27,2.43-19.92,3.57a148.38,148.38,0,0,0-19.36,4.92,37.41,37.41,0,0,1-8.12,1.32c-20.58,1.71-38.59-4.61-54.42-17.6-2.5-2-4.95-4.19-7.24-6.48-2-2-4.26-3.34-7.19-2.95-1.81-5,2.53-22.59,7.74-31.45,2,1.05,4,2.07,6,3.15a34.94,34.94,0,0,0,15.85,4.13c8.33.3,16.61-.44,24.9-1.14a23.48,23.48,0,0,0,3.83-.57c-2.48-.66-5-1.33-7.43-2-4.44-1.18-8.87-2.38-13.32-3.51a1.12,1.12,0,0,1-1-1.28,27.31,27.31,0,0,1,1.06-8.77c2.12-6.91,7-10.58,14-11.56a7.52,7.52,0,0,1,3.27.24c9.34,3.06,18.53,6.52,27.1,11.43a31.25,31.25,0,0,1,8.08,6.14c2,2.25,3.19,4.72,1.31,7.85a4.58,4.58,0,0,0,1.2-5c-.78-2.56-2.58-4.39-4.49-6.11a58.86,58.86,0,0,0-14.28-9.17c-6.48-3.07-13.11-5.86-19.7-8.7-2.22-1-3.18-2.6-2.23-4.86a15.88,15.88,0,0,1,2.52-4.05c2.5-3,5.15-5.79,7.73-8.68.53-.59,1-1.23,1.55-1.88,2.27,5.48,7.18,7.37,12.2,8.85,11.59,3.41,23.13,3.24,34.36-1.54,3.4-1.44,6.52-3.54,9.81-5.26,5.4-2.83,11-5.27,17.14-5.77a57.58,57.58,0,0,1,7.74.39,7.32,7.32,0,0,1,.79.15l.06-.42a52.69,52.69,0,0,0-5.7-.77c-6-.21-11.53,1.52-16.91,3.88a80.3,80.3,0,0,0-8.35,4.18c-8,4.69-16.64,6.35-25.78,5.88a42.93,42.93,0,0,1-16.91-4,22.81,22.81,0,0,1-5-3.44c-1.84-1.66-1.89-3.07-.69-5.25a15.68,15.68,0,0,1,5.27-5.62c3-2,6.22-1.45,9.49-.86,4.39.81,8.8,1.63,13.23,2.15a24.26,24.26,0,0,0,13.26-1.77c.22-.1.42-.21,1-.5-2.12-.37-3.91-.62-5.68-1Q142.76,108.4,137,107a11.39,11.39,0,0,1-2.21-.9c-6-2.86-8.54-7.72-7.41-14.3,1.62-9.41,6.82-16.58,14.18-22.32a40.17,40.17,0,0,1,21.91-8.83,36.2,36.2,0,0,1,8.82.47c4.5.78,7.6,3.67,9.95,7.78l-5.36.67a18.46,18.46,0,0,0-9,3.07c-.45.33-.88.68-1.31,1a4.23,4.23,0,0,0-1.31,5.06A10.7,10.7,0,0,0,171,85.39c4.64,2,9.39,3.77,14.11,5.62,1.92.76,4,1.29,5.79,2.22a11.54,11.54,0,0,1,6.22,11.61l-15.93,3.49,0,.39a20.38,20.38,0,0,0,3.76.58c4.19-.09,8.38-.49,12.58-.48,4.51,0,8.61,1.32,11.56,5a13.88,13.88,0,0,1,3.08,8.41,9.89,9.89,0,0,1-1.34,4.12,38.91,38.91,0,0,1-2.43,4c1.06-.18,1.87-.35,2.68-.44,4.88-.49,8.41,1.69,10.93,5.7a29,29,0,0,1,3.85,11.87c.16,1.15.12,2.33.34,3.46.16.8-.12,1.12-.75,1.49a77.16,77.16,0,0,0-17.08,13.09c-4.67,4.84-8.48,10.21-9.94,16.93a20.29,20.29,0,0,0,.86,12.13,13.28,13.28,0,0,0,8.1,7.82,5.71,5.71,0,0,0,7-1.86,33.61,33.61,0,0,0,3.6-6.17c1.94-4.12,3.6-8.36,5.54-12.47a24.64,24.64,0,0,1,5.57-7.6,10.43,10.43,0,0,1,10.32-2.61A25.76,25.76,0,0,1,252,178.9c3.81,4.11,5.32,9.22,5.31,14.66,0,16.89-7,30.06-21.85,38.48-9.73,5.51-19.93,5.54-30.45,1.91-7.94-2.73-14.74-7.19-21.29-12.21-7.46-5.71-14.44-11.91-19.88-19.66a38.07,38.07,0,0,1-6.61-14.63c-1.54-8,.49-15.14,5-21.69,4.91-7.12,11.54-12.35,18.81-16.84,2.38-1.46,4.87-2.75,7.3-4.12l.67-.4Zm33.42-.54a10.92,10.92,0,1,0-10.82,11A10.86,10.86,0,0,0,222.33,143.63Z"/></g><g id="Layer_2" data-name="Layer 2"><circle class="cls-2" cx="211.8" cy="144.01" r="10.86"/><circle class="cls-4" cx="211.8" cy="144.01" r="6.62"/><path class="cls-2" d="M262,185.93c-4.73-3.76-9.36-7.59-14.37-10.59a29.47,29.47,0,0,0-7.74-3.4,11,11,0,0,0-7.54.58,16.77,16.77,0,0,0-6,5.52,44.62,44.62,0,0,0-4.34,7.75c-1.25,2.72-2.27,5.56-3.47,8.35a39.58,39.58,0,0,1-2,4.16,11.29,11.29,0,0,1-3.16,3.76,5.63,5.63,0,0,1-2.56,1,6.75,6.75,0,0,1-2.74-.26,13.69,13.69,0,0,1-4.38-2.43c-.31-.25-.63-.51-.94-.79l-.25-.22-.28-.3-.43-.5a16.81,16.81,0,0,1-1.38-2.13,17.65,17.65,0,0,1-1.7-4.7,20.17,20.17,0,0,1-.42-5,23.3,23.3,0,0,1,.74-4.87,29.84,29.84,0,0,1,3.91-8.78,57.73,57.73,0,0,1,12.77-13.48,90,90,0,0,1,15.43-9.71l.22.33c-4.66,3.87-9.3,7.66-13.56,11.79a72.53,72.53,0,0,0-11.23,13.35A31.6,31.6,0,0,0,203,183a17.88,17.88,0,0,0-.65,8,15.16,15.16,0,0,0,1.14,3.84,14.41,14.41,0,0,0,1,1.73c.09.14.17.27.26.39s.12.15.09.13l.16.17c.23.24.48.48.73.73,2,1.92,4.42,3.53,6.59,2.29a8.72,8.72,0,0,0,2.89-2.85,30,30,0,0,0,2.16-3.85c1.26-2.7,2.36-5.51,3.42-8.34a78.27,78.27,0,0,1,3.61-8.45,17.67,17.67,0,0,1,6.4-7.28,11.68,11.68,0,0,1,5-1.56,14.61,14.61,0,0,1,5,.53,27.56,27.56,0,0,1,8.54,4.25,53.09,53.09,0,0,1,7,6,67.4,67.4,0,0,1,6,6.89Z"/></g><g id="Layer_3" data-name="Layer 3"><path class="cls-3" d="M106.29,230.66S122,220.81,146,217.47c30.11-4.19,19.05-8.36-1.75,11.53S106.29,230.66,106.29,230.66Z"/><path class="cls-2" d="M106.29,230.66a65.58,65.58,0,0,1,7-4.08c2.39-1.25,4.84-2.4,7.33-3.44a121.65,121.65,0,0,1,15.54-4.63c2.63-.59,5.29-1.11,8-1.51s5.31-.76,8-1.22,5.27-.94,7.87-1.52c1.31-.29,2.59-.6,3.92-.92l.26-.06a2.27,2.27,0,0,1,.4-.06.9.9,0,0,1,.27.05c.1-.17.88.84.44,1.11a.74.74,0,0,1-.25.27l-.16.12-.25.14-.89.49-1.73,1A87.8,87.8,0,0,0,149,225.74c-2,1.73-3.9,3.58-6,5.41a37.88,37.88,0,0,1-6.73,4.69,24.55,24.55,0,0,1-16,2.85A27.11,27.11,0,0,1,106.29,230.66Zm0,0c8.07,7.15,20.09,9.14,29.3,3.84a36.65,36.65,0,0,0,6.46-4.5c1.95-1.73,3.91-3.67,6-5.41a89.29,89.29,0,0,1,13.15-9.52l1.77-1,.88-.48.19-.11,0,0s0,0-.16.19c-.43.25.35,1.23.41,1.07.2,0,.17,0,.21,0s0,0-.09,0l-.23.06c-1.28.31-2.61.64-3.93.92-2.63.59-5.29,1.09-7.95,1.54s-5.34.8-8,1.23-5.26.9-7.86,1.48a116.89,116.89,0,0,0-15.33,4.58A101.16,101.16,0,0,0,106.29,230.66Z"/></g><g id="Layer_4" data-name="Layer 4"><path class="cls-7" d="M79.25,204.92a25.6,25.6,0,0,1-10.43-2.1,11.47,11.47,0,0,1-4.48-3.39,7.32,7.32,0,0,1-1.28-2.7,7.74,7.74,0,0,1-.09-3A12.31,12.31,0,0,1,63.8,191a7.56,7.56,0,0,1,1.68-2.45,5.63,5.63,0,0,1,2.7-1.46,6.6,6.6,0,0,1,3,0A10.63,10.63,0,0,1,76,189.87a8.82,8.82,0,0,1,2.65,4.62,9.83,9.83,0,0,0-3.29-3.87,10.44,10.44,0,0,0-4.47-2,4.44,4.44,0,0,0-4,1.23,8,8,0,0,0-1.86,4.17,5.47,5.47,0,0,0,.93,4.27,10.78,10.78,0,0,0,3.65,3.1A39.38,39.38,0,0,0,79.25,204.92Z"/><path class="cls-7" d="M97.91,190.51a40.43,40.43,0,0,1,9-9.5,17.91,17.91,0,0,1,2.93-1.79,9.1,9.1,0,0,1,3.63-1,4.92,4.92,0,0,1,2.16.42,3.93,3.93,0,0,1,1,.59,4.24,4.24,0,0,1,.8.78,8.42,8.42,0,0,1,1.58,3.57,16.26,16.26,0,0,1-.09,7,14.38,14.38,0,0,1-3.29,6.17,13.73,13.73,0,0,1-5.71,3.78,9.5,9.5,0,0,1-3.38.5,4.29,4.29,0,0,1-3-1.28,4.28,4.28,0,0,0,3,.45,9.35,9.35,0,0,0,2.85-1,13.85,13.85,0,0,0,4.47-3.92,13.12,13.12,0,0,0,2.33-5.3,15,15,0,0,0-.08-5.79,5.67,5.67,0,0,0-.91-2.31,2.08,2.08,0,0,0-1.67-.82,6.48,6.48,0,0,0-2.59.56,24.17,24.17,0,0,0-2.7,1.34A91.2,91.2,0,0,0,97.91,190.51Z"/><path class="cls-7" d="M142.49,198.86a18.73,18.73,0,0,1-1.73,8.37,10.72,10.72,0,0,1-2.65,3.64,5.84,5.84,0,0,1-.92.72l-1,.59c-.36.16-.75.26-1.13.4a4.19,4.19,0,0,1-1.16.23,8.35,8.35,0,0,1-2.34,0,5.94,5.94,0,0,1-2.37-.77,3.86,3.86,0,0,1-1-1,3.45,3.45,0,0,1-.55-1.3,4.75,4.75,0,0,1,.23-2.48,10.08,10.08,0,0,1,2.44-3.73,9.12,9.12,0,0,1,3.62-2.31,11.78,11.78,0,0,0-2.87,2.94,10.52,10.52,0,0,0-1.69,3.53,3.59,3.59,0,0,0,0,1.66,1.56,1.56,0,0,0,.85,1,5.8,5.8,0,0,0,3.46.39,2.65,2.65,0,0,0,.89-.16c.28-.09.58-.16.86-.27l.8-.43a7.91,7.91,0,0,0,.75-.54,10.81,10.81,0,0,0,2.5-2.93A30.89,30.89,0,0,0,142.49,198.86Z"/><g class="cls-8"><path class="cls-9" d="M126.33,79.25c1.31-8.37.35-10.36-6.77-14.46-1-.55-1.92-1.06-2.84-1.67-4.2-2.78-5.62-6.12-4-11,1-3.09,2.8-5.92,4.21-8.89,2.47-5.22.48-10.79-4.64-13,4.27,6,4.15,7.27-.41,13.37a39.79,39.79,0,0,0-4.92,8c-2.4,5.61-.93,9.5,4.3,12.52a46.93,46.93,0,0,0,5.91,2.91C122.61,69.29,126.78,72.45,126.33,79.25Zm72-47.23-.71.28c1.14,3,2.25,6.06,3.42,9.07,3.76,9.61,2.26,14.74-5.79,21.2a33.69,33.69,0,0,0-7.39,7.55c-2.83,4.38-1.19,8.46,3.91,11-3.14-5-1.16-8.86,2.19-12.36,3.13-3.27,6.5-6.32,9.52-9.68,3.64-4.06,4.4-8.73,1.85-13.7C203.06,40.9,200.69,36.47,198.35,32ZM160,51.1l1.45,0c-.19-2.44.27-5.2-.73-7.24a33.79,33.79,0,0,0-6.12-8.07c-3.85-4-4.09-7.38-.28-11.42.66-.7,1.43-1.28,2.12-1.95,5.47-5.34,4.69-11.67-1.93-15.72,4.71,7.64,4.65,8.38-1.16,15-7.5,8.55-7.16,13,1.56,20.21C157.82,44.29,160.83,46.59,160,51.1Z"/><path class="cls-9" d="M126.33,79.25c.45-6.8-3.72-10-9.19-12.18a46.93,46.93,0,0,1-5.91-2.91c-5.23-3-6.7-6.91-4.3-12.52a39.79,39.79,0,0,1,4.92-8c4.56-6.1,4.68-7.37.41-13.37,5.12,2.23,7.11,7.8,4.64,13-1.41,3-3.2,5.8-4.21,8.89-1.59,4.85-.17,8.19,4,11,.92.61,1.89,1.12,2.84,1.67C126.68,68.89,127.64,70.88,126.33,79.25Z"/><path class="cls-9" d="M198.35,32c2.34,4.45,4.71,8.88,7,13.35,2.55,5,1.79,9.64-1.85,13.7-3,3.36-6.39,6.41-9.52,9.68-3.35,3.5-5.33,7.36-2.19,12.36-5.1-2.53-6.74-6.61-3.91-11a33.69,33.69,0,0,1,7.39-7.55c8-6.46,9.55-11.59,5.79-21.2-1.17-3-2.28-6-3.42-9.07Z"/><path class="cls-9" d="M160,51.1c.81-4.51-2.2-6.81-5.09-9.21-8.72-7.24-9.06-11.66-1.56-20.21,5.81-6.63,5.87-7.37,1.16-15,6.62,4.05,7.4,10.38,1.93,15.72-.69.67-1.46,1.25-2.12,1.95-3.81,4-3.57,7.44.28,11.42a33.79,33.79,0,0,1,6.12,8.07c1,2,.54,4.8.73,7.24Z"/></g><ellipse class="cls-10" cx="233.63" cy="293.76" rx="3.1" ry="1.83" transform="translate(-115.58 156.17) rotate(-30)"/><g class="cls-11"><path class="cls-12" d="M64.49,305.67l.16.35c.76-.37,1.55-.64,2.33-.94l-.17-.43C66,305,65.24,305.28,64.49,305.67Z"/><path class="cls-12" d="M60.47,307.78l.11.2c.74-.4,1.5-.77,2.24-1.15l-.14-.28C61.94,307,61.2,307.35,60.47,307.78Z"/><path class="cls-12" d="M56.59,310.1l0,0c.75-.38,1.49-.79,2.22-1.21l-.07-.12C58,309.25,57.32,309.69,56.59,310.1Z"/><polygon class="cls-12" points="77.45 301.45 77.6 302.21 80.08 301.78 79.94 300.95 77.45 301.45"/><polygon class="cls-12" points="73.03 302.52 73.2 303.15 75.64 302.56 75.48 301.85 73.03 302.52"/><polygon class="cls-12" points="68.71 303.89 68.89 304.39 71.29 303.65 71.11 303.07 68.71 303.89"/><polygon class="cls-12" points="91.02 299.86 91.05 300.92 93.56 300.92 93.55 299.82 91.02 299.86"/><polygon class="cls-12" points="86.48 300.16 86.55 301.13 89.06 301 89.01 299.97 86.48 300.16"/><polygon class="cls-12" points="81.97 300.68 82.09 301.55 84.58 301.26 84.48 300.33 81.97 300.68"/><polygon class="cls-12" points="104.67 300.14 104.57 301.41 107.08 301.68 107.2 300.38 104.67 300.14"/><polygon class="cls-12" points="100.13 299.91 100.08 301.12 102.59 301.26 102.67 300.01 100.13 299.91"/><path class="cls-12" d="M95.6,299.79v1.14h1.26l1.25.07,0-1.17C97.29,299.78,96.45,299.76,95.6,299.79Z"/><path class="cls-12" d="M118.23,301.76l-.22,1.39c.83.13,1.66.24,2.49.4l.24-1.41C119.91,302,119.07,301.88,118.23,301.76Z"/><polygon class="cls-12" points="113.73 301.11 113.55 302.47 116.04 302.85 116.24 301.47 113.73 301.11"/><path class="cls-12" d="M109.23,300.57l-.14,1.32c.83.09,1.67.16,2.5.28l.17-1.34C110.92,300.72,110.07,300.66,109.23,300.57Z"/><rect class="cls-4" x="132.06" y="303.64" width="1.49" height="2.53" transform="translate(-189.72 386) rotate(-80.58)"/><polygon class="cls-12" points="127.2 303.22 126.96 304.67 129.46 305.09 129.7 303.64 127.2 303.22"/><polygon class="cls-12" points="122.75 302.48 122.51 303.89 125 304.33 125.24 302.89 122.75 302.48"/><polygon class="cls-12" points="145.12 306.11 144.9 307.59 147.41 307.94 147.62 306.46 145.12 306.11"/><rect class="cls-4" x="141.03" y="305.08" width="1.5" height="2.53" transform="translate(-182.81 399.01) rotate(-81.1)"/><rect class="cls-4" x="136.56" y="304.38" width="1.5" height="2.53" transform="translate(-186.4 392.15) rotate(-80.77)"/><path class="cls-12" d="M158.6,307.92l-.16,1.45q1.25.17,2.52.27l.15-1.43C160.27,308.13,159.44,308,158.6,307.92Z"/><polygon class="cls-12" points="154.11 307.37 153.92 308.83 156.44 309.13 156.61 307.68 154.11 307.37"/><polygon class="cls-12" points="149.64 306.75 149.43 308.23 151.94 308.58 152.14 307.11 149.64 306.75"/><path class="cls-12" d="M172.14,309.13l-.08,1.35c.85,0,1.69.12,2.54.12l.05-1.33C173.81,309.26,173,309.18,172.14,309.13Z"/><polygon class="cls-12" points="167.62 308.83 167.52 310.22 170.05 310.37 170.14 309 167.62 308.83"/><polygon class="cls-12" points="163.13 308.41 163 309.83 165.52 310.06 165.65 308.65 163.13 308.41"/><polygon class="cls-12" points="185.71 309.32 185.76 310.51 187.03 310.46 188.3 310.34 188.22 309.2 186.97 309.3 185.71 309.32"/><polygon class="cls-12" points="181.19 309.42 181.2 310.66 183.74 310.58 183.71 309.37 181.19 309.42"/><polygon class="cls-12" points="176.69 309.33 176.65 310.63 179.19 310.67 179.21 309.39 176.69 309.33"/><polygon class="cls-12" points="199.2 307.98 199.37 308.9 201.85 308.32 201.66 307.46 199.2 307.98"/><polygon class="cls-12" points="194.73 308.61 194.86 309.63 197.38 309.23 197.22 308.26 194.73 308.61"/><polygon class="cls-12" points="190.25 309.05 190.34 310.15 192.88 309.92 192.76 308.86 190.25 309.05"/><polygon class="cls-12" points="212.3 304.5 212.51 305.06 214.86 304.09 214.66 303.6 212.3 304.5"/><polygon class="cls-12" points="208 305.88 208.21 306.58 210.63 305.8 210.42 305.17 208 305.88"/><path class="cls-12" d="M203.65,307l.2.81a23.32,23.32,0,0,0,2.45-.66l-.2-.75A23,23,0,0,1,203.65,307Z"/><polygon class="cls-12" points="224.61 298.77 224.68 298.9 226.82 297.54 226.79 297.5 224.61 298.77"/><path class="cls-12" d="M220.63,300.93l.14.28A22.81,22.81,0,0,0,223,300l-.12-.2A23.65,23.65,0,0,1,220.63,300.93Z"/><polygon class="cls-12" points="216.56 302.87 216.75 303.3 219 302.13 218.83 301.78 216.56 302.87"/></g><ellipse class="cls-13" cx="232.46" cy="291.88" rx="1.38" ry="1.88" transform="translate(-133.18 217.43) rotate(-39.96)"/><ellipse class="cls-13" cx="234.97" cy="294.88" rx="1.38" ry="1.88" transform="translate(-134.52 219.74) rotate(-39.96)"/><ellipse class="cls-10" cx="240.63" cy="94.76" rx="3.1" ry="1.83" transform="translate(-15.14 133.01) rotate(-30)"/><ellipse class="cls-13" cx="239.46" cy="92.88" rx="1.38" ry="1.88" transform="translate(-3.74 175.46) rotate(-39.96)"/><ellipse class="cls-13" cx="241.97" cy="95.88" rx="1.38" ry="1.88" transform="translate(-5.08 177.78) rotate(-39.96)"/><ellipse class="cls-10" cx="69.42" cy="124" rx="3.1" ry="1.83" transform="matrix(0.53, -0.85, 0.85, 0.53, -72.53, 117.26)"/><ellipse class="cls-13" cx="71.34" cy="125.11" rx="1.38" ry="1.87" transform="translate(-71.39 144.37) rotate(-67.99)"/><ellipse class="cls-13" cx="67.71" cy="123.64" rx="1.38" ry="1.88" transform="translate(-72.3 140.08) rotate(-67.99)"/><ellipse class="cls-10" cx="139.04" cy="49.49" rx="1.83" ry="3.1" transform="translate(-8.44 55.15) rotate(-21.79)"/><ellipse class="cls-13" cx="137.02" cy="50.38" rx="1.88" ry="1.38" transform="translate(-6.01 79.63) rotate(-31.74)"/><ellipse class="cls-13" cx="140.35" cy="48.32" rx="1.88" ry="1.38" transform="translate(-4.43 81.07) rotate(-31.74)"/></g><g id="Layer_6" data-name="Layer 6"><path class="cls-14" d="M51.77,164.06s-46.35-39.81-48.66.52a238.88,238.88,0,0,0,.25,28.5c2.72,36.92,38.13,4.46,38.13,4.46s-.41-9.33,1.94-17S51.77,164.06,51.77,164.06Z"/></g><g id="Layer_7" data-name="Layer 7"><path class="cls-3" d="M230.87,151.33c3.71,3.5,7.11,6.68,10.47,9.9a13.15,13.15,0,0,1,1.77,2.23,3.57,3.57,0,0,1,.44,3.31c-.59,1.69-1,1.92-2.69,1.54-5.87-1.28-10.52.64-14.12,5.25-2.44,3.14-3.85,6.81-5.34,10.44-1.61,3.93-3.18,7.89-5,11.71a20.75,20.75,0,0,1-3.55,4.87c-1.32,1.43-3.07,1.5-4.82.54-4.43-2.4-6.34-6.28-6.59-11.07-.29-5.57,2-10.37,4.91-14.91,4.22-6.48,9.68-11.86,15.46-16.95,1.5-1.32,3-2.66,4.58-3.86S229.58,152.18,230.87,151.33Z"/></g><g id="Spots" class="cls-15"><ellipse class="cls-16" cx="133.84" cy="141.5" rx="7.01" ry="4.92"/><ellipse class="cls-16" cx="150.75" cy="119.5" rx="4.08" ry="3.51"/><ellipse class="cls-16" cx="141.25" cy="86.5" rx="3.35" ry="3.04"/><ellipse class="cls-16" cx="156.84" cy="98.5" rx="7.01" ry="4.92"/><ellipse class="cls-16" cx="186.84" cy="129.5" rx="5.82" ry="4.08"/><ellipse class="cls-16" cx="154.33" cy="149.5" rx="3.88" ry="3.46"/><ellipse class="cls-16" cx="132.91" cy="190.5" rx="4.85" ry="5.83"/><ellipse class="cls-16" cx="80.84" cy="177.46" rx="5.5" ry="3.04"/><ellipse class="cls-16" cx="100.84" cy="151.5" rx="7.83" ry="5.49"/><ellipse class="cls-16" cx="119.84" cy="166.5" rx="4.48" ry="3.14"/><circle class="cls-16" cx="94.88" cy="211.12" r="4.29"/></g></svg>